<svg width="512" height="512" viewBox="0 0 512 512" fill="none" xmlns="http://www.w3.org/2000/svg">
<g clip-path="url(#clip0_2_77)">
<circle cx="256" cy="256" r="256" fill="#6E9E70"/>
<circle cx="256" cy="256" r="256" fill="url(#paint0_linear_2_77)"/>
<path d="M181.292 249H219.625M181.292 278H219.625M181.292 220H219.625M133.375 249H138.167M133.375 278H138.167M133.375 220H138.167M157.333 249H162.125M157.333 278H162.125M157.333 220H162.125" stroke="white" stroke-width="15" stroke-linecap="round" stroke-linejoin="round"/>
<path d="M255.5 199.125V407.375M255.5 199.125C255.5 183.345 249.231 168.211 238.073 157.052C226.914 145.894 211.78 139.625 196 139.625H121.625C117.68 139.625 113.896 141.192 111.107 143.982C108.317 146.771 106.75 150.555 106.75 154.5V347.875C106.75 351.82 108.317 355.604 111.107 358.393C113.896 361.183 117.68 362.75 121.625 362.75H210.875C222.71 362.75 234.061 367.452 242.43 375.82C250.798 384.189 255.5 395.54 255.5 407.375M255.5 199.125C255.5 183.345 261.769 168.211 272.927 157.052C284.086 145.894 299.22 139.625 315 139.625H389.375C393.32 139.625 397.104 141.192 399.893 143.982C402.683 146.771 404.25 150.555 404.25 154.5V347.875C404.25 351.82 402.683 355.604 399.893 358.393C397.104 361.183 393.32 362.75 389.375 362.75H300.125C288.29 362.75 276.939 367.452 268.57 375.82C260.202 384.189 255.5 395.54 255.5 407.375" stroke="white" stroke-width="20" stroke-linecap="round" stroke-linejoin="round"/>
</g>
<defs>
<linearGradient id="paint0_linear_2_77" x1="256" y1="0" x2="256" y2="512" gradientUnits="userSpaceOnUse">
<stop stop-color="white" stop-opacity="0"/>
<stop offset="1" stop-opacity="0.3"/>
</linearGradient>
<clipPath id="clip0_2_77">
<rect width="512" height="512" fill="white"/>
</clipPath>
</defs>
</svg>
